<?xml version="1.0" encoding="iso-8859-1"?><!-- Generator: Adobe Illustrator 19.2.1, SVG Export Plug-In . SVG Version: 6.00 Build 0)  --><svg xmlns="http://www.w3.org/2000/svg" xmlns:xlink="http://www.w3.org/1999/xlink" version="1.1" id="Layer_1" x="0px" y="0px" viewBox="0 0 80 80" style="enable-background:new 0 0 80 80;" xml:space="preserve" width="80" height="80">
<g>
	<rect x="2.5" y="2.5" style="fill:#FFFFFF;" width="75" height="75"/>
	<g>
		<path style="fill:#788B9C;" d="M77,3v74H3V3H77 M78,2H2v76h76V2L78,2z"/>
	</g>
</g>
<g>
	<rect x="2.5" y="2.5" style="fill:#F78F8F;" width="75" height="11.667"/>
	<g>
		<path style="fill:#C74343;" d="M77,3v10.667H3V3H77 M78,2H2v12.667h76V2L78,2z"/>
	</g>
</g>
<rect x="3" y="71" style="fill:#E1EBF2;" width="74" height="6"/>
<g>
	<rect x="46.333" y="33.667" style="fill:#C5D4DE;" width="6.333" height="6.333"/>
</g>
<g>
	<rect x="56.889" y="33.667" style="fill:#C5D4DE;" width="6.333" height="6.333"/>
</g>
<g>
	<rect x="35.778" y="33.667" style="fill:#C5D4DE;" width="6.333" height="6.333"/>
</g>
<g>
	<rect x="46.333" y="44.222" style="fill:#C5D4DE;" width="6.333" height="6.333"/>
</g>
<g>
	<rect x="56.889" y="44.222" style="fill:#C5D4DE;" width="6.333" height="6.333"/>
</g>
<g>
	<rect x="25.222" y="44.222" style="fill:#C5D4DE;" width="6.333" height="6.333"/>
</g>
<g>
	<rect x="35.778" y="44.222" style="fill:#C5D4DE;" width="6.333" height="6.333"/>
</g>
<g>
	<rect x="46.833" y="55.278" style="fill:#F78F8F;" width="5.333" height="5.333"/>
	<g>
		<path style="fill:#C74343;" d="M51.667,55.778v4.333h-4.333v-4.333H51.667 M52.667,54.778h-6.333v6.333h6.333V54.778    L52.667,54.778z"/>
	</g>
</g>
<g>
	<rect x="25.222" y="54.778" style="fill:#C5D4DE;" width="6.333" height="6.333"/>
</g>
<g>
	<rect x="25.222" y="33.667" style="fill:#C5D4DE;" width="6.333" height="6.333"/>
</g>
<g>
	<rect x="14.667" y="44.222" style="fill:#C5D4DE;" width="6.333" height="6.333"/>
</g>
<g>
	<rect x="46.333" y="23.111" style="fill:#C5D4DE;" width="6.333" height="6.333"/>
</g>
<g>
	<rect x="56.889" y="23.111" style="fill:#C5D4DE;" width="6.333" height="6.333"/>
</g>
<g>
	<rect x="35.778" y="23.111" style="fill:#C5D4DE;" width="6.333" height="6.333"/>
</g>
<g>
	<rect x="25.222" y="23.111" style="fill:#C5D4DE;" width="6.333" height="6.333"/>
</g>
<g>
	<rect x="14.667" y="33.667" style="fill:#C5D4DE;" width="6.333" height="6.333"/>
</g>
<g>
	<rect x="14.667" y="54.778" style="fill:#C5D4DE;" width="6.333" height="6.333"/>
</g>
<g>
	<rect x="35.778" y="54.778" style="fill:#C5D4DE;" width="6.333" height="6.333"/>
</g>
</svg>