<svg width="33" height="32" viewBox="0 0 33 32" fill="none" xmlns="http://www.w3.org/2000/svg">
<path d="M20.9759 17.8387C19.6848 19.2017 17.8655 20.0584 15.8408 20.0584C13.8161 20.0584 11.9968 19.2017 10.7155 17.8484C7.51709 19.6398 5.35547 23.0473 5.35547 26.9611V27H26.3555V26.9611C26.3555 23.0278 24.1841 19.6203 20.9759 17.8387Z" stroke="#292929" stroke-miterlimit="10"/>
<path d="M15.849 20.0487C17.8737 20.0487 19.693 19.1919 20.9841 17.8289C22.1676 16.573 22.9012 14.8887 22.9012 13.0195C22.9012 9.14465 19.7419 6 15.849 6C11.9562 6 8.79688 9.15438 8.79688 13.0292C8.79688 14.8985 9.53046 16.5828 10.7237 17.8387C12.0051 19.2017 13.8244 20.0487 15.849 20.0487Z" stroke="#292929" stroke-miterlimit="10"/>
</svg>
